<?xml version="1.0" encoding="utf-8"?>
<!-- Generator: Adobe Illustrator 19.2.1, SVG Export Plug-In . SVG Version: 6.00 Build 0)  -->
<svg version="1.1" id="Layer_1" xmlns="http://www.w3.org/2000/svg" xmlns:xlink="http://www.w3.org/1999/xlink" x="0px" y="0px"
	 viewBox="0 0 301.5 328.4" style="enable-background:new 0 0 301.5 328.4;" xml:space="preserve">
<style type="text/css">
	.st0{fill:#7AB93D;}
</style>
<title>Screen Shot 2016-02-10 at 12.53.57 PM</title>
<path class="st0" d="M212.2,151.3c-2.5,12.9-6.6,24.6-13.7,35.1c-0.7,1.3-0.9,2.8-0.7,4.2c0.6,3.3,1.4,6.5,2.3,9.7
	c1.1,5,4.8,8.9,9.7,10.3c20.1,6.6,39.8,14.4,60.1,19.8c20.7,5.5,28.9,19.5,30.9,36.5c1,8.5,0.6,17.3,0.5,25.9c0,1.5-2.1,3.5-3.7,4.2
	c-30.6,14-63.2,23.4-96.5,27.8c-67.6,9.1-132.8,0.5-195.4-26.7c-4.2-1.8-6-4.1-5.6-8.5c1-10.7,0.9-21.7,3.1-32.1
	c3.1-14.1,12.7-22.9,27-26.4c22.3-5.6,44-13.3,64.8-22.9c7.3-3.3,11.2-16.9,6.7-23.5c-6.8-10.1-10.4-21.4-12.8-33.3
	c-0.2-1.1-0.3-2.6-1.1-3.1c-9.8-7-10.8-18.3-13.8-28.5c-1.1-4-1.6-8.2-1.5-12.3c0.1-7,1.9-8.9,9-11c-4.4-13.3-4.4-27.7-0.1-41
	c10.4-33.3,46.2-58.1,80.8-55.3c17.3,1.4,31.8,9.1,42.6,23.1c0.8,1.2,1.9,2.2,3.2,2.8c12.1,3.9,17.2,13.5,19.8,24.9
	c3.6,15.6,1.4,31.1-1.1,46.6c-0.2,1.6,0.7,3.4,1.3,5c0.9,2.6,2.8,5.1,2.8,7.7c0.2,13.1-3.7,25.3-9.9,36.7
	C219.3,150.2,216.8,152.8,212.2,151.3z"/>
</svg>
